<svg width="22" height="22" viewBox="0 0 22 22" fill="none" xmlns="http://www.w3.org/2000/svg">
<path d="M6.68 0.439941C3.2384 0.439941 0.440002 3.23834 0.440002 6.67994V15.3199C0.440002 18.7615 3.2384 21.5599 6.68 21.5599H15.32C18.7616 21.5599 21.56 18.7615 21.56 15.3199V6.67994C21.56 3.23834 18.7616 0.439941 15.32 0.439941H6.68ZM16.76 4.27994C17.288 4.27994 17.72 4.71194 17.72 5.23994C17.72 5.76794 17.288 6.19994 16.76 6.19994C16.232 6.19994 15.8 5.76794 15.8 5.23994C15.8 4.71194 16.232 4.27994 16.76 4.27994ZM11 5.71994C13.9136 5.71994 16.28 8.08634 16.28 10.9999C16.28 13.9135 13.9136 16.2799 11 16.2799C8.0864 16.2799 5.72 13.9135 5.72 10.9999C5.72 8.08634 8.0864 5.71994 11 5.71994ZM11 6.67994C8.6192 6.67994 6.68 8.61914 6.68 10.9999C6.68 13.3807 8.6192 15.3199 11 15.3199C13.3808 15.3199 15.32 13.3807 15.32 10.9999C15.32 8.61914 13.3808 6.67994 11 6.67994Z" fill="white"/>
</svg>
